<?xml version="1.0" standalone="no"?>
<!DOCTYPE svg PUBLIC "-//W3C//DTD SVG 20010904//EN"
 "http://www.w3.org/TR/2001/REC-SVG-20010904/DTD/svg10.dtd">
<svg version="1.0" xmlns="http://www.w3.org/2000/svg"
 width="1080.000000pt" height="1080.000000pt" viewBox="0 0 1080.000000 1080.000000"
 preserveAspectRatio="xMidYMid meet">
<metadata>
Created by potrace 1.16, written by Peter Selinger 2001-2019
</metadata>
<g transform="translate(0.000000,1080.000000) scale(0.100000,-0.100000)"
fill="#000000" stroke="none">
<path d="M4687 9224 c-21 -8 -98 -17 -170 -21 -78 -3 -140 -11 -152 -19 -11
-7 -51 -16 -90 -20 -38 -4 -79 -13 -90 -20 -11 -7 -46 -16 -77 -19 -32 -4 -58
-11 -58 -15 0 -5 -24 -14 -54 -20 -30 -6 -60 -18 -66 -26 -7 -7 -26 -14 -42
-14 -16 0 -41 -9 -55 -20 -14 -11 -36 -20 -49 -20 -13 0 -33 -9 -44 -20 -11
-11 -29 -20 -40 -20 -11 0 -20 -3 -20 -7 0 -5 -22 -31 -48 -60 -26 -28 -63
-70 -82 -93 -19 -23 -42 -50 -50 -59 -20 -23 -37 -50 -52 -81 -7 -14 -19 -30
-26 -35 -14 -11 -33 -42 -57 -92 -8 -18 -19 -33 -24 -33 -5 0 -12 -13 -16 -29
-3 -16 -13 -32 -21 -35 -8 -3 -14 -14 -14 -24 0 -11 -7 -25 -15 -32 -8 -7 -20
-30 -25 -51 -6 -22 -15 -39 -19 -39 -5 0 -12 -16 -15 -36 -4 -19 -13 -37 -21
-40 -7 -3 -16 -22 -20 -42 -4 -20 -12 -44 -20 -52 -7 -8 -15 -31 -19 -51 -4
-21 -13 -42 -21 -49 -8 -7 -15 -24 -15 -39 0 -14 -9 -41 -20 -59 -11 -18 -20
-48 -20 -67 0 -18 -6 -40 -14 -48 -8 -8 -17 -35 -21 -60 -4 -26 -13 -52 -21
-58 -8 -7 -14 -30 -14 -57 l0 -46 23 30 c72 94 324 344 347 344 5 0 14 9 20
20 6 11 15 20 20 20 6 0 19 8 29 18 41 38 73 62 82 62 5 0 19 9 32 20 47 43
53 48 75 54 12 4 22 11 22 16 0 5 10 12 23 16 12 4 33 15 46 25 13 11 32 19
41 19 10 0 20 7 24 15 3 8 14 15 24 15 11 0 31 9 45 20 14 11 34 20 45 20 10
0 27 9 37 20 10 11 28 20 39 20 12 0 36 9 54 20 18 11 41 20 52 20 11 0 37 9
57 20 21 11 54 20 75 20 20 0 38 5 40 10 2 6 35 15 73 21 39 6 84 17 102 25
19 9 66 14 120 14 48 0 104 6 123 12 27 10 509 14 2216 18 l2180 5 39 35 c96
88 123 135 136 235 11 83 -4 220 -26 245 -8 9 -15 21 -15 26 0 19 -107 124
-126 124 -11 0 -32 9 -49 20 -30 20 -51 20 -2160 19 -1786 -1 -2136 -4 -2168
-15z"/>
<path d="M4225 7250 c-3 -5 -34 -10 -68 -11 -100 -1 -173 -13 -191 -32 -10 -9
-21 -17 -26 -17 -4 0 -24 -16 -43 -35 -40 -40 -54 -100 -42 -186 9 -65 28 -93
167 -251 13 -15 32 -38 43 -53 11 -15 30 -37 43 -50 12 -12 22 -25 22 -28 0
-4 16 -24 35 -44 64 -70 136 -153 170 -197 11 -15 34 -41 51 -60 17 -18 34
-40 37 -49 4 -10 13 -17 22 -17 8 0 15 -7 15 -15 0 -9 7 -18 15 -22 9 -3 22
-17 29 -32 8 -14 28 -39 45 -56 17 -16 31 -33 31 -37 0 -5 17 -26 38 -48 20
-22 46 -51 57 -65 11 -14 37 -44 58 -67 20 -23 37 -45 37 -49 0 -4 26 -34 58
-67 31 -34 66 -73 77 -87 11 -14 37 -45 57 -68 21 -23 38 -48 38 -54 0 -7 7
-13 15 -13 8 0 15 -5 15 -11 0 -7 10 -22 23 -34 38 -38 81 -88 111 -128 15
-21 43 -54 62 -72 19 -19 34 -40 34 -47 0 -23 -69 -113 -152 -198 -21 -21 -38
-41 -38 -44 0 -3 -13 -18 -29 -33 -24 -24 -49 -53 -146 -170 -5 -7 -36 -40
-67 -74 -32 -33 -58 -64 -58 -69 0 -5 -6 -13 -13 -17 -7 -4 -25 -24 -41 -43
-36 -44 -159 -180 -208 -232 -21 -22 -38 -42 -38 -45 0 -3 -10 -16 -22 -29
-13 -13 -39 -42 -58 -65 -19 -23 -45 -53 -57 -67 -13 -14 -23 -29 -23 -33 0
-5 -6 -9 -14 -9 -7 0 -16 -9 -19 -20 -3 -11 -12 -20 -21 -20 -9 0 -16 -6 -16
-12 0 -7 -17 -31 -38 -54 -20 -22 -55 -62 -77 -88 -22 -26 -57 -65 -77 -88
-21 -22 -38 -42 -38 -44 0 -3 -20 -24 -43 -48 -47 -47 -101 -122 -111 -154 -4
-11 -13 -26 -21 -32 -22 -18 -19 -87 5 -117 11 -14 20 -32 20 -40 0 -8 21 -34
46 -58 36 -33 57 -44 92 -49 62 -8 2304 -6 2373 3 32 4 64 14 73 24 10 9 23
17 30 17 15 0 56 54 56 73 0 8 6 20 14 26 8 7 27 37 43 69 15 31 36 65 46 74
9 10 17 24 17 32 0 7 6 19 14 25 8 7 18 25 21 41 3 16 13 31 21 34 8 3 14 14
14 24 0 11 9 31 20 45 11 14 20 32 20 41 0 9 4 16 9 16 5 0 16 17 25 38 26 60
57 112 67 112 5 0 9 11 9 24 0 13 9 35 20 49 11 14 20 31 20 38 0 7 7 21 17
31 9 10 12 18 6 18 -5 0 -20 9 -33 20 -13 11 -30 20 -39 20 -9 0 -22 9 -29 20
-7 11 -22 20 -33 20 -11 0 -32 9 -46 20 -14 11 -34 20 -43 20 -10 0 -20 6 -23
14 -3 8 -19 17 -36 21 -17 4 -34 12 -38 19 -11 18 -47 25 -68 14 -9 -6 -23
-25 -31 -44 -8 -19 -19 -34 -24 -34 -6 0 -10 -8 -10 -19 0 -10 -8 -29 -18 -42
-11 -13 -22 -36 -26 -51 -3 -16 -10 -28 -15 -28 -5 0 -15 -16 -21 -35 -6 -19
-15 -35 -20 -35 -5 0 -11 -13 -15 -29 -3 -16 -13 -35 -21 -42 -8 -6 -14 -17
-14 -24 0 -7 -8 -23 -19 -36 -10 -13 -22 -34 -25 -47 -11 -35 -47 -84 -80
-112 l-30 -25 -746 -3 c-411 -1 -764 1 -786 6 -44 9 -57 38 -30 65 9 9 16 19
16 24 0 5 18 26 40 48 21 22 39 45 40 52 0 6 9 15 20 18 11 3 20 11 20 17 0 6
17 28 38 49 20 20 42 43 47 51 30 38 115 138 145 170 70 73 110 118 110 123 0
5 56 68 98 110 12 12 22 25 22 28 0 3 17 23 38 45 61 64 142 154 142 159 0 2
6 10 13 18 6 7 32 37 57 66 25 29 71 79 103 112 31 33 57 62 57 66 0 4 8 14
18 23 20 19 49 54 77 92 11 16 29 37 39 47 16 16 20 34 20 112 1 83 -2 95 -22
115 -12 12 -22 27 -22 32 0 6 -16 26 -35 46 -19 19 -35 38 -35 41 0 7 -20 30
-57 65 -13 12 -23 27 -23 34 0 8 -9 18 -20 24 -11 6 -20 15 -20 20 0 4 -17 26
-37 47 -21 21 -54 58 -73 82 -19 24 -45 53 -57 64 -13 11 -23 27 -23 34 0 7
-5 13 -10 13 -6 0 -16 11 -22 25 -6 14 -17 25 -25 25 -7 0 -13 6 -13 13 0 7
-8 20 -17 29 -10 9 -36 37 -58 63 -22 26 -49 57 -60 68 -11 12 -38 45 -60 72
-39 49 -80 97 -120 139 -11 11 -31 37 -44 56 -22 33 -34 47 -109 127 -16 17
-43 48 -58 69 -16 21 -36 46 -44 54 -8 9 -28 33 -45 54 -16 21 -38 46 -47 55
-24 23 -33 68 -17 87 12 14 87 16 754 13 407 -2 750 -5 762 -7 20 -4 63 -41
116 -99 9 -11 17 -27 17 -37 0 -9 6 -19 14 -22 8 -3 17 -16 20 -30 4 -13 15
-33 26 -44 11 -11 20 -29 20 -40 0 -11 4 -20 9 -20 5 0 23 -28 41 -62 43 -84
62 -118 83 -148 9 -13 17 -33 17 -43 0 -9 6 -20 14 -23 8 -3 18 -18 21 -34 8
-38 43 -60 71 -45 12 6 28 16 35 22 8 6 25 14 37 18 13 4 33 16 43 26 10 10
28 19 39 19 11 0 20 5 20 10 0 6 16 18 35 27 19 9 35 20 35 25 0 4 7 8 15 8 9
0 30 10 48 22 18 13 33 23 35 24 4 2 -29 64 -38 69 -5 3 -11 19 -15 35 -4 17
-10 30 -15 30 -5 0 -14 16 -20 35 -6 19 -16 35 -21 35 -5 0 -14 12 -20 28 -12
34 -14 39 -43 87 -13 22 -37 65 -53 95 -15 30 -34 59 -40 63 -7 4 -13 17 -13
27 0 11 -9 29 -20 40 -11 11 -22 31 -26 44 -3 14 -12 30 -20 37 -8 6 -14 20
-14 30 0 11 -9 27 -20 36 -11 10 -20 26 -20 37 0 11 -6 26 -14 35 -49 55 -103
104 -125 114 -19 9 -286 13 -986 15 -603 2 -963 6 -969 12 -13 13 -203 13
-211 0z"/>
<path d="M8173 3726 c-13 -12 -23 -30 -23 -39 0 -10 -6 -20 -14 -23 -8 -3 -12
-12 -9 -20 3 -8 -5 -18 -21 -25 -18 -9 -26 -20 -27 -38 -1 -30 -17 -75 -18
-51 -1 9 -7 5 -14 -10 -8 -15 -9 -28 -4 -31 5 -4 -4 -11 -19 -17 -26 -9 -26
-11 -6 -11 12 -1 22 -6 22 -12 0 -6 -7 -8 -16 -5 -26 10 -67 -37 -69 -81 -2
-29 -7 -38 -21 -38 -15 0 -20 -10 -25 -45 l-6 -45 -3 40 -2 40 -13 -40 c-8
-22 -14 -32 -14 -22 -1 10 -6 15 -12 12 -5 -4 -8 -21 -5 -38 3 -18 3 -27 0
-20 -12 27 -34 0 -34 -43 0 -26 -5 -44 -11 -44 -6 0 -9 9 -6 20 3 11 1 18 -4
14 -5 -3 -9 -12 -9 -20 0 -8 -8 -14 -19 -14 -22 0 -37 -16 -46 -51 -5 -20 -12
-25 -30 -23 -19 2 -26 -5 -35 -29 -9 -26 -13 -29 -20 -17 -5 8 -10 13 -11 10
0 -3 -2 -13 -4 -23 -2 -10 -13 -26 -24 -36 -12 -10 -21 -22 -21 -27 0 -17 -35
-39 -54 -36 -10 2 -16 0 -12 -6 6 -10 -21 -39 -33 -35 -3 1 -5 -4 -3 -12 1 -8
-7 -15 -20 -17 -17 -2 -23 -10 -23 -28 0 -14 -4 -31 -9 -39 -5 -8 -4 -16 3
-21 7 -4 -7 -6 -31 -6 -29 1 -42 -3 -41 -11 2 -8 -8 -13 -25 -13 -20 0 -23 -3
-13 -9 11 -7 5 -11 -22 -16 -22 -4 -37 -13 -37 -22 0 -8 -15 -19 -32 -25 -33
-12 -33 -12 -8 -19 24 -7 24 -7 -4 -8 -32 -1 -26 -15 9 -25 12 -3 11 -4 -5 -1
-14 2 -35 7 -48 10 -18 6 -21 4 -16 -9 4 -12 2 -15 -9 -11 -8 4 -26 -6 -43
-24 -16 -17 -34 -31 -40 -31 -5 0 -15 -10 -20 -22 -6 -13 -9 -17 -7 -10 4 20
-39 4 -59 -21 -9 -12 -23 -22 -30 -23 -7 0 -21 -2 -30 -2 -10 -1 -18 -9 -18
-17 0 -8 -8 -15 -18 -15 -23 0 -43 -32 -31 -51 14 -22 10 -32 -6 -15 -8 8 -15
19 -15 25 0 7 -8 7 -22 2 -13 -5 -22 -14 -21 -19 1 -6 -15 -13 -37 -17 -25 -4
-40 -12 -40 -21 0 -8 -9 -14 -21 -14 -11 0 -29 -5 -40 -10 -12 -7 -19 -7 -19
-1 0 6 -7 8 -15 5 -22 -9 -18 -22 8 -27 14 -3 8 -5 -15 -6 -24 -1 -36 -5 -34
-13 1 -7 1 -10 -1 -5 -8 12 -35 8 -53 -8 -10 -9 -35 -19 -56 -22 -22 -3 -42
-11 -46 -16 -8 -13 -32 -18 -86 -17 -24 0 -41 -4 -38 -9 9 -15 -22 -34 -46
-28 -21 6 -22 5 -5 -8 12 -8 14 -15 8 -20 -6 -3 -11 -1 -11 4 0 6 -6 11 -14
11 -8 0 -17 6 -19 13 -4 9 -8 9 -16 -3 -5 -8 -7 -18 -5 -22 3 -4 -4 -8 -16 -8
-12 0 -30 -5 -41 -10 -13 -8 -25 -7 -39 0 -26 14 -58 5 -62 -17 -2 -14 -16
-16 -83 -15 -66 0 -86 -3 -115 -21 -31 -19 -50 -22 -160 -23 -69 -1 -138 -2
-155 -3 -16 0 -130 1 -252 2 -121 1 -219 -1 -217 -4 2 -4 -13 -3 -34 2 -54 12
-795 12 -787 -1 3 -5 2 -10 -4 -10 -5 0 -13 5 -16 10 -5 7 -139 11 -408 10
-221 0 -418 4 -437 9 -24 6 -29 10 -15 12 11 1 -27 5 -85 8 -58 3 -106 3 -108
-1 -2 -4 -12 -2 -22 4 -23 14 -33 7 -24 -16 4 -10 18 -16 36 -16 17 0 27 -4
23 -10 -3 -6 -1 -10 5 -10 6 0 8 -5 5 -10 -4 -6 5 -10 19 -10 16 0 26 -6 26
-14 0 -8 13 -17 29 -21 16 -3 32 -13 35 -21 3 -8 15 -14 27 -14 13 0 23 -8 26
-21 4 -16 8 -17 14 -7 7 10 9 10 9 1 0 -7 11 -13 25 -13 18 0 25 -5 25 -19 0
-16 6 -19 35 -17 19 2 36 -1 36 -5 1 -5 2 -15 3 -21 1 -13 5 -14 45 -17 11 0
23 -10 26 -21 4 -11 12 -20 18 -19 21 4 67 -13 61 -22 -3 -5 10 -9 29 -9 23 0
39 -7 48 -20 10 -15 26 -21 57 -22 24 -1 39 -4 35 -7 -4 -3 -9 -12 -10 -18 -3
-12 43 -19 84 -14 6 1 14 -8 18 -19 5 -15 16 -20 41 -21 19 -1 39 -3 44 -4 6
-1 13 -3 18 -4 4 -1 0 -6 -8 -12 -15 -10 2 -10 95 4 17 2 22 2 13 0 -19 -5
-25 -23 -7 -23 5 0 8 -4 5 -9 -7 -11 9 -18 68 -26 34 -5 46 -11 42 -21 -4 -11
6 -12 54 -7 l60 6 0 -28 c0 -27 1 -27 53 -22 54 5 113 -14 102 -33 -8 -13 58
-13 105 -1 19 5 71 11 115 14 47 3 67 2 50 -3 -16 -4 -54 -8 -82 -9 -29 0 -53
-5 -53 -11 0 -5 20 -7 48 -4 26 3 58 1 72 -4 20 -8 14 -9 -26 -5 -32 3 -59 1
-70 -6 -16 -10 -9 -11 36 -7 35 4 50 2 40 -4 -9 -5 9 -8 51 -6 65 3 101 -3
100 -17 -2 -19 0 -21 9 -7 5 8 10 10 10 4 0 -8 46 -11 150 -11 82 0 147 3 144
8 -3 5 2 9 10 9 9 0 16 -5 16 -10 0 -7 96 -10 285 -9 170 0 283 5 279 10 -8
13 20 21 84 23 31 2 86 4 122 6 l65 3 -60 7 -60 7 65 1 c47 2 61 5 50 12 -10
7 2 9 42 6 46 -3 149 9 114 13 -5 1 -3 7 3 15 8 10 31 13 76 11 49 -1 65 1 65
12 0 7 9 13 19 13 11 0 23 4 26 10 3 5 19 7 36 3 22 -4 33 -1 42 11 14 19 92
40 109 30 6 -4 8 -2 4 4 -7 11 36 25 99 32 11 1 1 7 -25 14 l-45 13 58 -1 c41
-1 60 3 67 14 5 8 10 10 10 4 0 -19 50 -11 56 9 4 12 16 17 39 17 25 0 35 5
40 20 5 15 15 20 41 20 19 0 34 5 34 11 0 16 24 36 38 31 7 -2 24 3 37 12 13
9 36 16 50 16 18 0 28 7 35 25 7 19 17 25 42 26 l33 1 -30 8 -30 8 35 1 c27 1
32 4 20 11 -11 7 -3 9 28 5 33 -4 42 -2 42 10 0 8 12 18 26 21 21 5 25 11 21
30 -4 24 8 34 15 13 6 -17 55 7 63 30 6 21 35 30 35 11 0 -5 7 -7 15 -4 8 4
13 10 10 14 -3 5 5 12 17 16 13 4 29 15 36 25 7 11 19 19 26 19 13 0 26 21 26
40 0 5 -10 11 -22 13 -20 4 -19 4 5 6 15 0 27 -3 27 -9 0 -17 47 -11 56 8 4 9
6 21 5 26 -1 5 6 6 15 2 13 -5 15 -2 11 15 -5 17 -2 20 14 16 13 -3 29 3 44
19 13 13 32 24 41 24 10 0 14 3 11 7 -4 3 1 12 11 19 16 12 15 13 -6 14 -13 0
-21 4 -18 9 3 4 18 6 32 3 19 -3 25 -1 20 6 -4 7 -2 10 7 6 8 -3 21 6 31 20 9
14 20 25 24 25 19 -3 25 2 12 11 -13 9 -13 10 1 10 19 0 79 52 79 68 0 7 6 12
14 12 7 0 16 9 19 21 3 11 15 23 26 26 12 3 21 14 21 25 0 11 4 16 11 12 20
-12 58 47 59 91 0 25 3 35 9 27 6 -10 10 -10 20 1 9 12 8 16 -5 21 -9 3 -20 4
-25 0 -5 -3 -9 0 -9 5 0 6 11 11 24 11 19 0 22 4 19 24 -3 16 2 29 19 42 12
10 23 27 24 37 0 9 1 40 2 67 2 37 6 50 17 50 11 0 15 12 15 45 0 27 -5 45
-11 45 -8 0 -10 -14 -6 -40 3 -23 1 -38 -4 -34 -11 7 -12 94 -1 94 5 0 9 17
10 37 1 21 6 39 12 41 5 2 10 22 11 45 1 36 2 38 9 17 12 -37 13 -23 14 195 1
128 -2 203 -9 208 -6 4 -5 10 3 16 11 6 13 31 9 106 -6 113 -18 136 -54 101z"/>
</g>
</svg>
